<svg xmlns="http://www.w3.org/2000/svg" viewBox="0 0 208.01 64.03"><defs><style>.cls-1{fill:#03a64a;}.cls-2{fill:none;stroke:#03a64a;stroke-miterlimit:10;stroke-width:2.5px;}.cls-3{fill:#bf4b21;}.cls-4{fill:#f2c12e;}</style></defs><g id="레이어_2" data-name="레이어 2"><g id="레이어_1-2" data-name="레이어 1"><path class="cls-1" d="M74.86,40.54V33.43a10.28,10.28,0,0,0,9.6-8h-9V18.7h26.11v6.72H92.67a13.29,13.29,0,0,1-.43,2.3l10.75,6-3.79,6L89,33.77A19,19,0,0,1,74.86,40.54Zm42.82-16v7.72h-4.8v8.55h-8.11V18.22h8.11v6.29Z"/><path class="cls-1" d="M162,50.21V57.8H120.53V50.21h16.61V44H125.79V19.2h8v5.23h15V19.2h8V44H145.4v6.24ZM133.76,36.72h15V31.59h-15Z"/><path class="cls-1" d="M208,50.21V57.8H166.53V50.21h13.73V43.59h8.16v6.62ZM194.59,39.94h-22.8V32.4h22.8V26.74h-22.8V19.2h31V47h-8.16Z"/><path class="cls-1" d="M97.27,59.06c-7.87,0-13.15-4.13-13.15-10.56S89.4,37.94,97.27,37.94s13.15,4.17,13.15,10.56S105.14,59.06,97.27,59.06Zm0-6.53c3.12,0,5.09-1.58,5.09-4s-2-4-5.09-4-5.09,1.58-5.09,4S94.15,52.53,97.27,52.53Z"/><path class="cls-1" d="M58.52,4.87a4.81,4.81,0,0,1,.37.55h0c4.28,7-6.35,18.41-10.24,25.54-.13.24-.26.47-.37.7-3.87,7.1-4.3,10.76-8.56,16.69-5.31,7.41-13.4,11-22,9.66h0L17.44,58c-6.17-1-10.07-3.73-12.45-6.54A25.64,25.64,0,0,0,27.7,64a21.74,21.74,0,0,0,13.2-4.28C47.71,54.84,51.22,47.14,52.54,43c1.12-3.55,1.26-3.76,2.51-7.53,1.76-5.27,3.37-7.66,4.86-11.38C61,21.23,63.74,11.22,58.52,4.87Z"/><path class="cls-2" d="M1.35,39.19A16.45,16.45,0,0,0,5,51.41C7.4,54.26,11.38,57,17.72,58c8.61,1.33,16.7-2.25,22-9.66,4.26-5.93,4.69-9.59,8.56-16.69C52.05,24.13,64.75,11,57.82,4.05,51.54-2.22,40.25,2.8,29,11.58,16.28,21.45,2.61,26.64,1.35,39.19Z"/><path class="cls-3" d="M33.89,40.1c-5.56,5.57-12.22,6.38-16.76,1.83S13.39,30.73,19,25.16s12.25-6.34,16.77-1.83S39.46,34.53,33.89,40.1Z"/><path class="cls-4" d="M28.14,31.29c2.83-1.32,3.94-3.58,2.91-5.8S27.56,22.67,24.73,24s-3.94,3.59-2.91,5.81S25.31,32.61,28.14,31.29Z"/></g></g></svg>